<svg xmlns="http://www.w3.org/2000/svg" viewBox="0 0 340 80" width="340" height="80">
  <g transform="translate(6,2) scale(0.48)">
    <polygon points="90,10 155,47 155,121 90,158 25,121 25,47" fill="#811971" stroke="none"/>
    <polygon points="90,34 131,58 131,110 90,134 49,110 49,58" fill="none" stroke="white" stroke-width="0.7" opacity="0.15"/>
    <line x1="90" y1="10" x2="90" y2="34" stroke="white" stroke-width="0.5" opacity="0.12"/>
    <line x1="155" y1="47" x2="131" y2="58" stroke="white" stroke-width="0.5" opacity="0.12"/>
    <line x1="155" y1="121" x2="131" y2="110" stroke="white" stroke-width="0.5" opacity="0.12"/>
    <line x1="90" y1="158" x2="90" y2="134" stroke="white" stroke-width="0.5" opacity="0.12"/>
    <line x1="25" y1="121" x2="49" y2="110" stroke="white" stroke-width="0.5" opacity="0.12"/>
    <line x1="25" y1="47" x2="49" y2="58" stroke="white" stroke-width="0.5" opacity="0.12"/>
    <circle cx="90" cy="34" r="2.5" fill="white" opacity="0.35"/>
    <circle cx="131" cy="58" r="2.5" fill="white" opacity="0.35"/>
    <circle cx="131" cy="110" r="2.5" fill="white" opacity="0.35"/>
    <circle cx="90" cy="134" r="2.5" fill="white" opacity="0.35"/>
    <circle cx="49" cy="110" r="2.5" fill="white" opacity="0.35"/>
    <circle cx="49" cy="58" r="2.5" fill="white" opacity="0.35"/>
    <circle cx="68" cy="44" r="2" fill="white" opacity="0.25"/>
    <circle cx="108" cy="44" r="2" fill="white" opacity="0.25"/>
    <circle cx="60" cy="62" r="2" fill="white" opacity="0.22"/>
    <circle cx="54" cy="80" r="2" fill="white" opacity="0.22"/>
    <circle cx="52" cy="98" r="2" fill="white" opacity="0.22"/>
    <circle cx="60" cy="114" r="2" fill="white" opacity="0.22"/>
    <circle cx="78" cy="124" r="2" fill="white" opacity="0.22"/>
    <circle cx="102" cy="126" r="2" fill="white" opacity="0.22"/>
    <circle cx="72" cy="72" r="1.5" fill="white" opacity="0.18"/>
    <circle cx="66" cy="92" r="1.5" fill="white" opacity="0.18"/>
    <circle cx="74" cy="106" r="1.5" fill="white" opacity="0.18"/>
    <circle cx="86" cy="116" r="1.5" fill="white" opacity="0.18"/>
    <circle cx="44" cy="70" r="1.5" fill="white" opacity="0.15"/>
    <circle cx="38" cy="84" r="1.5" fill="white" opacity="0.15"/>
    <circle cx="42" cy="100" r="1.5" fill="white" opacity="0.15"/>
    <circle cx="112" cy="120" r="1.5" fill="white" opacity="0.15"/>
    <circle cx="120" cy="48" r="1.5" fill="white" opacity="0.18"/>
    <line x1="68" y1="44" x2="90" y2="34" stroke="white" stroke-width="0.5" opacity="0.16"/>
    <line x1="68" y1="44" x2="49" y2="58" stroke="white" stroke-width="0.5" opacity="0.16"/>
    <line x1="108" y1="44" x2="90" y2="34" stroke="white" stroke-width="0.5" opacity="0.16"/>
    <line x1="108" y1="44" x2="131" y2="58" stroke="white" stroke-width="0.5" opacity="0.16"/>
    <line x1="108" y1="44" x2="120" y2="48" stroke="white" stroke-width="0.4" opacity="0.12"/>
    <line x1="120" y1="48" x2="131" y2="58" stroke="white" stroke-width="0.4" opacity="0.12"/>
    <line x1="68" y1="44" x2="60" y2="62" stroke="white" stroke-width="0.5" opacity="0.16"/>
    <line x1="60" y1="62" x2="49" y2="58" stroke="white" stroke-width="0.5" opacity="0.14"/>
    <line x1="60" y1="62" x2="54" y2="80" stroke="white" stroke-width="0.5" opacity="0.16"/>
    <line x1="60" y1="62" x2="72" y2="72" stroke="white" stroke-width="0.4" opacity="0.12"/>
    <line x1="54" y1="80" x2="52" y2="98" stroke="white" stroke-width="0.5" opacity="0.16"/>
    <line x1="54" y1="80" x2="66" y2="92" stroke="white" stroke-width="0.4" opacity="0.12"/>
    <line x1="54" y1="80" x2="44" y2="70" stroke="white" stroke-width="0.4" opacity="0.1"/>
    <line x1="44" y1="70" x2="38" y2="84" stroke="white" stroke-width="0.4" opacity="0.1"/>
    <line x1="38" y1="84" x2="42" y2="100" stroke="white" stroke-width="0.4" opacity="0.1"/>
    <line x1="42" y1="100" x2="49" y2="110" stroke="white" stroke-width="0.4" opacity="0.1"/>
    <line x1="52" y1="98" x2="49" y2="110" stroke="white" stroke-width="0.5" opacity="0.14"/>
    <line x1="52" y1="98" x2="66" y2="92" stroke="white" stroke-width="0.4" opacity="0.12"/>
    <line x1="66" y1="92" x2="74" y2="106" stroke="white" stroke-width="0.4" opacity="0.12"/>
    <line x1="52" y1="98" x2="60" y2="114" stroke="white" stroke-width="0.5" opacity="0.14"/>
    <line x1="60" y1="114" x2="49" y2="110" stroke="white" stroke-width="0.5" opacity="0.14"/>
    <line x1="60" y1="114" x2="78" y2="124" stroke="white" stroke-width="0.5" opacity="0.14"/>
    <line x1="74" y1="106" x2="86" y2="116" stroke="white" stroke-width="0.4" opacity="0.12"/>
    <line x1="78" y1="124" x2="90" y2="134" stroke="white" stroke-width="0.5" opacity="0.14"/>
    <line x1="86" y1="116" x2="90" y2="134" stroke="white" stroke-width="0.4" opacity="0.12"/>
    <line x1="102" y1="126" x2="90" y2="134" stroke="white" stroke-width="0.5" opacity="0.14"/>
    <line x1="102" y1="126" x2="112" y2="120" stroke="white" stroke-width="0.4" opacity="0.1"/>
    <line x1="112" y1="120" x2="131" y2="110" stroke="white" stroke-width="0.4" opacity="0.1"/>
    <line x1="72" y1="72" x2="66" y2="92" stroke="white" stroke-width="0.4" opacity="0.1"/>
    <path d="M98 60 C90 52, 76 54, 74 62 C70 72, 76 82, 86 86" fill="none" stroke="white" stroke-width="2.8" stroke-linecap="round"/>
    <line x1="66" y1="62" x2="92" y2="62" stroke="white" stroke-width="2" stroke-linecap="round"/>
    <line x1="68" y1="72" x2="88" y2="72" stroke="white" stroke-width="2" stroke-linecap="round"/>
    <circle cx="98" cy="60" r="3.5" fill="white" opacity="0.55"/>
    <circle cx="86" cy="86" r="3.5" fill="white" opacity="0.55"/>
    <line x1="98" y1="60" x2="108" y2="44" stroke="white" stroke-width="0.8" opacity="0.28"/>
    <line x1="98" y1="60" x2="120" y2="48" stroke="white" stroke-width="0.6" opacity="0.2"/>
    <line x1="86" y1="86" x2="66" y2="92" stroke="white" stroke-width="0.7" opacity="0.22"/>
    <line x1="86" y1="86" x2="74" y2="106" stroke="white" stroke-width="0.7" opacity="0.22"/>
    <line x1="86" y1="86" x2="102" y2="126" stroke="white" stroke-width="0.6" opacity="0.18"/>
    <line x1="98" y1="60" x2="68" y2="44" stroke="white" stroke-width="0.6" opacity="0.18"/>
    <rect x="110" y="98" width="7" height="18" rx="1.5" fill="white" opacity="0.5"/>
    <rect x="121" y="86" width="7" height="30" rx="1.5" fill="white" opacity="0.6"/>
    <rect x="132" y="74" width="7" height="42" rx="1.5" fill="white" opacity="0.7"/>
    <line x1="108" y1="116" x2="141" y2="116" stroke="white" stroke-width="0.5" opacity="0.18"/>
    <line x1="113" y1="98" x2="131" y2="110" stroke="white" stroke-width="0.5" opacity="0.14"/>
    <line x1="124" y1="86" x2="131" y2="58" stroke="white" stroke-width="0.4" opacity="0.1"/>
    <line x1="135" y1="74" x2="131" y2="58" stroke="white" stroke-width="0.4" opacity="0.1"/>
    <line x1="135" y1="116" x2="131" y2="110" stroke="white" stroke-width="0.5" opacity="0.14"/>
    <line x1="113" y1="98" x2="112" y2="120" stroke="white" stroke-width="0.4" opacity="0.1"/>
  </g>
  <text x="96" y="35" font-family="Helvetica, Arial, sans-serif" font-size="24" fill="#811971" letter-spacing="-0.5"><tspan font-weight="600">neuron</tspan><tspan font-weight="300" opacity="0.5">X</tspan><tspan font-weight="600">compta</tspan></text>
  <text x="96" y="54" font-family="Helvetica, Arial, sans-serif" font-size="10.5" fill="#811971" opacity="0.45" letter-spacing="3">COMPTABILITE IA</text>
</svg>
